<mxfile host="app.diagrams.net" modified="2020-11-13T15:21:54.440Z" agent="5.0 (Windows NT 10.0; Win64; x64) AppleWebKit/537.36 (KHTML, like Gecko) Chrome/86.0.4240.198 Safari/537.36" etag="gJylRQ-_JJiBcTklzZwy" version="13.9.7" type="github" pages="2">
  <diagram name="Page-1" id="c4acf3e9-155e-7222-9cf6-157b1a14988f">
    <mxGraphModel dx="1743" dy="600" grid="1" gridSize="10" guides="1" tooltips="1" connect="1" arrows="1" fold="1" page="1" pageScale="1" pageWidth="850" pageHeight="1100" background="#ffffff" math="0" shadow="0">
      <root>
        <mxCell id="0" />
        <mxCell id="1" parent="0" />
        <mxCell id="17acba5748e5396b-1" value="meiyu" style="shape=umlFrame;whiteSpace=wrap;html=1;rounded=0;shadow=0;comic=0;labelBackgroundColor=none;strokeWidth=1;fontFamily=Verdana;fontSize=10;align=center;" parent="1" vertex="1">
          <mxGeometry x="21" width="820" height="580" as="geometry" />
        </mxCell>
        <mxCell id="5d2195bd80daf111-26" style="edgeStyle=orthogonalEdgeStyle;rounded=0;html=1;dashed=1;labelBackgroundColor=none;startFill=0;endArrow=open;endFill=0;endSize=10;fontFamily=Verdana;fontSize=10;entryX=0.25;entryY=0;entryDx=0;entryDy=0;" parent="1" source="5d2195bd80daf111-15" target="yO616Och8_UGGmBlZA4o-2" edge="1">
          <mxGeometry relative="1" as="geometry">
            <Array as="points" />
            <mxPoint x="740.0000000000002" y="275.0000000000002" as="targetPoint" />
          </mxGeometry>
        </mxCell>
        <mxCell id="5d2195bd80daf111-15" value="&lt;p style=&quot;margin: 0px ; margin-top: 4px ; text-align: center&quot;&gt;&lt;b&gt;chat_table&lt;/b&gt;&lt;/p&gt;&lt;hr size=&quot;1&quot;&gt;&lt;p style=&quot;margin: 0px ; margin-left: 4px&quot;&gt;chat_table_id&lt;/p&gt;&lt;hr size=&quot;1&quot;&gt;&lt;p style=&quot;margin: 0px ; margin-left: 4px&quot;&gt;user_id&lt;/p&gt;&lt;p style=&quot;margin: 0px ; margin-left: 4px&quot;&gt;chat_room_id&lt;/p&gt;&lt;p style=&quot;margin: 0px ; margin-left: 4px&quot;&gt;created_at&lt;/p&gt;&lt;p style=&quot;margin: 0px ; margin-left: 4px&quot;&gt;updated_at&lt;/p&gt;" style="verticalAlign=top;align=left;overflow=fill;fontSize=12;fontFamily=Helvetica;html=1;rounded=0;shadow=0;comic=0;labelBackgroundColor=none;strokeWidth=1" parent="1" vertex="1">
          <mxGeometry x="350" y="30" width="190" height="140" as="geometry" />
        </mxCell>
        <mxCell id="5d2195bd80daf111-22" style="edgeStyle=orthogonalEdgeStyle;rounded=0;html=1;exitX=0.5;exitY=1;dashed=1;labelBackgroundColor=none;startFill=0;endArrow=open;endFill=0;endSize=10;fontFamily=Verdana;fontSize=10;entryX=0;entryY=0.5;entryDx=0;entryDy=0;exitDx=0;exitDy=0;" parent="1" source="5d2195bd80daf111-18" target="yO616Och8_UGGmBlZA4o-1" edge="1">
          <mxGeometry relative="1" as="geometry">
            <Array as="points">
              <mxPoint x="155" y="370" />
            </Array>
            <mxPoint x="580" y="142.00000000000023" as="targetPoint" />
          </mxGeometry>
        </mxCell>
        <mxCell id="5d2195bd80daf111-18" value="&lt;p style=&quot;margin: 0px ; margin-top: 4px ; text-align: center&quot;&gt;&lt;b&gt;chat_room&lt;/b&gt;&lt;/p&gt;&lt;hr size=&quot;1&quot;&gt;&lt;p style=&quot;margin: 0px ; margin-left: 4px&quot;&gt;chat_room_id&lt;/p&gt;&lt;hr size=&quot;1&quot;&gt;&lt;p style=&quot;margin: 0px 0px 0px 4px&quot;&gt;chat_room_name&lt;/p&gt;&lt;p style=&quot;margin: 0px 0px 0px 4px&quot;&gt;created_at&lt;/p&gt;&lt;p style=&quot;margin: 0px 0px 0px 4px&quot;&gt;updated_at&lt;/p&gt;" style="verticalAlign=top;align=left;overflow=fill;fontSize=12;fontFamily=Helvetica;html=1;rounded=0;shadow=0;comic=0;labelBackgroundColor=none;strokeWidth=1" parent="1" vertex="1">
          <mxGeometry x="70" y="150" width="190" height="140" as="geometry" />
        </mxCell>
        <mxCell id="5d2195bd80daf111-29" style="edgeStyle=orthogonalEdgeStyle;rounded=0;html=1;dashed=1;labelBackgroundColor=none;startFill=0;endArrow=open;endFill=0;endSize=10;fontFamily=Verdana;fontSize=10;exitX=0.5;exitY=0;exitDx=0;exitDy=0;" parent="1" source="5d2195bd80daf111-18" target="5d2195bd80daf111-15" edge="1">
          <mxGeometry relative="1" as="geometry">
            <mxPoint x="250" y="520" as="sourcePoint" />
            <mxPoint x="380" y="520" as="targetPoint" />
          </mxGeometry>
        </mxCell>
        <mxCell id="yO616Och8_UGGmBlZA4o-1" value="&lt;p style=&quot;margin: 0px ; margin-top: 4px ; text-align: center&quot;&gt;&lt;b&gt;chat&lt;/b&gt;&lt;/p&gt;&lt;hr size=&quot;1&quot;&gt;&lt;p style=&quot;margin: 0px ; margin-left: 4px&quot;&gt;chat_id&lt;/p&gt;&lt;hr size=&quot;1&quot;&gt;&lt;p style=&quot;margin: 0px ; margin-left: 4px&quot;&gt;user_id&lt;/p&gt;&lt;p style=&quot;margin: 0px ; margin-left: 4px&quot;&gt;chat_room_id&lt;/p&gt;&lt;p style=&quot;margin: 0px 0px 0px 4px&quot;&gt;content&lt;/p&gt;&lt;p style=&quot;margin: 0px 0px 0px 4px&quot;&gt;created_at&lt;/p&gt;&lt;p style=&quot;margin: 0px 0px 0px 4px&quot;&gt;updated_at&lt;/p&gt;" style="verticalAlign=top;align=left;overflow=fill;fontSize=12;fontFamily=Helvetica;html=1;rounded=0;shadow=0;comic=0;labelBackgroundColor=none;strokeWidth=1" vertex="1" parent="1">
          <mxGeometry x="350" y="300" width="190" height="140" as="geometry" />
        </mxCell>
        <mxCell id="yO616Och8_UGGmBlZA4o-2" value="&lt;p style=&quot;margin: 0px ; margin-top: 4px ; text-align: center&quot;&gt;&lt;b&gt;user&lt;/b&gt;&lt;/p&gt;&lt;hr size=&quot;1&quot;&gt;&lt;p style=&quot;margin: 0px ; margin-left: 4px&quot;&gt;user_id&lt;/p&gt;&lt;hr size=&quot;1&quot;&gt;&lt;p style=&quot;margin: 0px ; margin-left: 4px&quot;&gt;nickname&lt;/p&gt;&lt;p style=&quot;margin: 0px ; margin-left: 4px&quot;&gt;birthday&lt;/p&gt;&lt;p style=&quot;margin: 0px ; margin-left: 4px&quot;&gt;social_position&lt;/p&gt;&lt;p style=&quot;margin: 0px ; margin-left: 4px&quot;&gt;introduction&lt;/p&gt;&lt;p style=&quot;margin: 0px ; margin-left: 4px&quot;&gt;status&lt;/p&gt;&lt;p style=&quot;margin: 0px ; margin-left: 4px&quot;&gt;created_at&lt;/p&gt;&lt;p style=&quot;margin: 0px ; margin-left: 4px&quot;&gt;updated_at&lt;/p&gt;" style="verticalAlign=top;align=left;overflow=fill;fontSize=12;fontFamily=Helvetica;html=1;rounded=0;shadow=0;comic=0;labelBackgroundColor=none;strokeWidth=1" vertex="1" parent="1">
          <mxGeometry x="635" y="150" width="190" height="170" as="geometry" />
        </mxCell>
        <mxCell id="yO616Och8_UGGmBlZA4o-4" style="edgeStyle=orthogonalEdgeStyle;rounded=0;html=1;dashed=1;labelBackgroundColor=none;startFill=0;endArrow=open;endFill=0;endSize=10;fontFamily=Verdana;fontSize=10;entryX=0.25;entryY=1;entryDx=0;entryDy=0;exitX=1;exitY=0.5;exitDx=0;exitDy=0;" edge="1" parent="1" source="yO616Och8_UGGmBlZA4o-1" target="yO616Och8_UGGmBlZA4o-2">
          <mxGeometry relative="1" as="geometry">
            <Array as="points" />
            <mxPoint x="590" y="110.00000000000023" as="sourcePoint" />
            <mxPoint x="740" y="160.00000000000023" as="targetPoint" />
          </mxGeometry>
        </mxCell>
        <mxCell id="yO616Och8_UGGmBlZA4o-5" value="social_positionに入るのは、大学生・社会人&lt;br&gt;statusに入るのは削除・停止の情報" style="text;html=1;align=center;verticalAlign=middle;resizable=0;points=[];autosize=1;" vertex="1" parent="1">
          <mxGeometry x="590" y="45" width="250" height="30" as="geometry" />
        </mxCell>
        <mxCell id="yO616Och8_UGGmBlZA4o-8" style="edgeStyle=orthogonalEdgeStyle;rounded=0;orthogonalLoop=1;jettySize=auto;html=1;" edge="1" parent="1" source="yO616Och8_UGGmBlZA4o-7" target="yO616Och8_UGGmBlZA4o-2">
          <mxGeometry relative="1" as="geometry" />
        </mxCell>
        <mxCell id="yO616Och8_UGGmBlZA4o-7" value="&lt;p style=&quot;margin: 0px ; margin-top: 4px ; text-align: center&quot;&gt;&lt;b&gt;friend_table&lt;/b&gt;&lt;/p&gt;&lt;hr size=&quot;1&quot;&gt;&lt;p style=&quot;margin: 0px ; margin-left: 4px&quot;&gt;friend_table_id&lt;/p&gt;&lt;hr size=&quot;1&quot;&gt;&lt;p style=&quot;margin: 0px ; margin-left: 4px&quot;&gt;user_id&lt;/p&gt;&lt;p style=&quot;margin: 0px ; margin-left: 4px&quot;&gt;friend_id&lt;/p&gt;&lt;p style=&quot;margin: 0px 0px 0px 4px&quot;&gt;created_at&lt;/p&gt;&lt;p style=&quot;margin: 0px 0px 0px 4px&quot;&gt;updated_at&lt;/p&gt;" style="verticalAlign=top;align=left;overflow=fill;fontSize=12;fontFamily=Helvetica;html=1;rounded=0;shadow=0;comic=0;labelBackgroundColor=none;strokeWidth=1" vertex="1" parent="1">
          <mxGeometry x="635" y="410" width="190" height="140" as="geometry" />
        </mxCell>
        <mxCell id="yO616Och8_UGGmBlZA4o-9" value="friend_idは友人のuser_idが入る" style="text;html=1;align=center;verticalAlign=middle;resizable=0;points=[];autosize=1;" vertex="1" parent="1">
          <mxGeometry x="395" y="525" width="180" height="20" as="geometry" />
        </mxCell>
      </root>
    </mxGraphModel>
  </diagram>
  <diagram id="lyaIEG4QB7NWKN8saNg-" name="Page-2">
    <mxGraphModel dx="1169" dy="514" grid="1" gridSize="10" guides="1" tooltips="1" connect="1" arrows="1" fold="1" page="1" pageScale="1" pageWidth="850" pageHeight="1100" math="0" shadow="0">
      <root>
        <mxCell id="UzELeVy0itp8o8AQ1S7T-0" />
        <mxCell id="UzELeVy0itp8o8AQ1S7T-1" parent="UzELeVy0itp8o8AQ1S7T-0" />
        <mxCell id="RJn_T40zJPG0TcpI99bp-0" value="meiyu" style="shape=umlFrame;whiteSpace=wrap;html=1;rounded=0;shadow=0;comic=0;labelBackgroundColor=none;strokeWidth=1;fontFamily=Verdana;fontSize=10;align=center;" vertex="1" parent="UzELeVy0itp8o8AQ1S7T-1">
          <mxGeometry x="21" y="40" width="789" height="410" as="geometry" />
        </mxCell>
        <mxCell id="rzjAkNylwUOneO2qIM_i-6" style="edgeStyle=orthogonalEdgeStyle;rounded=0;orthogonalLoop=1;jettySize=auto;html=1;endArrow=ERone;endFill=0;entryX=0.5;entryY=1;entryDx=0;entryDy=0;" edge="1" parent="UzELeVy0itp8o8AQ1S7T-1" source="RJn_T40zJPG0TcpI99bp-6" target="RJn_T40zJPG0TcpI99bp-11">
          <mxGeometry relative="1" as="geometry" />
        </mxCell>
        <mxCell id="RJn_T40zJPG0TcpI99bp-6" value="&lt;p style=&quot;margin: 0px ; margin-top: 4px ; text-align: center&quot;&gt;&lt;b&gt;chat&lt;/b&gt;&lt;/p&gt;&lt;hr size=&quot;1&quot;&gt;&lt;p style=&quot;margin: 0px ; margin-left: 4px&quot;&gt;chat_id&lt;/p&gt;&lt;hr size=&quot;1&quot;&gt;&lt;p style=&quot;margin: 0px ; margin-left: 4px&quot;&gt;&lt;span&gt;friend_relation_id&lt;/span&gt;&lt;br&gt;&lt;/p&gt;&lt;p style=&quot;margin: 0px 0px 0px 4px&quot;&gt;content&lt;/p&gt;&lt;p style=&quot;margin: 0px 0px 0px 4px&quot;&gt;created_at&lt;/p&gt;&lt;p style=&quot;margin: 0px 0px 0px 4px&quot;&gt;updated_at&lt;/p&gt;" style="verticalAlign=top;align=left;overflow=fill;fontSize=12;fontFamily=Helvetica;html=1;rounded=0;shadow=0;comic=0;labelBackgroundColor=none;strokeWidth=1" vertex="1" parent="UzELeVy0itp8o8AQ1S7T-1">
          <mxGeometry x="350" y="270" width="190" height="140" as="geometry" />
        </mxCell>
        <mxCell id="rzjAkNylwUOneO2qIM_i-5" style="edgeStyle=orthogonalEdgeStyle;rounded=0;orthogonalLoop=1;jettySize=auto;html=1;entryX=1;entryY=0.5;entryDx=0;entryDy=0;endArrow=ERzeroToMany;endFill=1;" edge="1" parent="UzELeVy0itp8o8AQ1S7T-1" source="RJn_T40zJPG0TcpI99bp-7" target="RJn_T40zJPG0TcpI99bp-11">
          <mxGeometry relative="1" as="geometry" />
        </mxCell>
        <mxCell id="RJn_T40zJPG0TcpI99bp-7" value="&lt;p style=&quot;margin: 0px ; margin-top: 4px ; text-align: center&quot;&gt;&lt;b&gt;user&lt;/b&gt;&lt;/p&gt;&lt;hr size=&quot;1&quot;&gt;&lt;p style=&quot;margin: 0px ; margin-left: 4px&quot;&gt;user_id&lt;/p&gt;&lt;hr size=&quot;1&quot;&gt;&lt;p style=&quot;margin: 0px ; margin-left: 4px&quot;&gt;nickname&lt;/p&gt;&lt;p style=&quot;margin: 0px ; margin-left: 4px&quot;&gt;birthday&lt;/p&gt;&lt;p style=&quot;margin: 0px ; margin-left: 4px&quot;&gt;social_position&lt;/p&gt;&lt;p style=&quot;margin: 0px ; margin-left: 4px&quot;&gt;introduction&lt;/p&gt;&lt;p style=&quot;margin: 0px ; margin-left: 4px&quot;&gt;social_status&lt;/p&gt;&lt;p style=&quot;margin: 0px ; margin-left: 4px&quot;&gt;created_at&lt;/p&gt;&lt;p style=&quot;margin: 0px ; margin-left: 4px&quot;&gt;updated_at&lt;/p&gt;" style="verticalAlign=top;align=left;overflow=fill;fontSize=12;fontFamily=Helvetica;html=1;rounded=0;shadow=0;comic=0;labelBackgroundColor=none;strokeWidth=1" vertex="1" parent="UzELeVy0itp8o8AQ1S7T-1">
          <mxGeometry x="580" y="135" width="190" height="170" as="geometry" />
        </mxCell>
        <mxCell id="RJn_T40zJPG0TcpI99bp-9" value="social_positionに入るのは、大学生・社会人&lt;br&gt;social_statusに入るのは削除・停止の情報" style="text;html=1;align=center;verticalAlign=middle;resizable=0;points=[];autosize=1;" vertex="1" parent="UzELeVy0itp8o8AQ1S7T-1">
          <mxGeometry x="550" y="90" width="250" height="30" as="geometry" />
        </mxCell>
        <mxCell id="RJn_T40zJPG0TcpI99bp-13" style="edgeStyle=orthogonalEdgeStyle;rounded=0;orthogonalLoop=1;jettySize=auto;html=1;entryX=0;entryY=0.5;entryDx=0;entryDy=0;exitX=0.5;exitY=1;exitDx=0;exitDy=0;endArrow=ERzeroToMany;endFill=1;" edge="1" parent="UzELeVy0itp8o8AQ1S7T-1" source="RJn_T40zJPG0TcpI99bp-11" target="RJn_T40zJPG0TcpI99bp-6">
          <mxGeometry relative="1" as="geometry" />
        </mxCell>
        <mxCell id="rzjAkNylwUOneO2qIM_i-2" style="edgeStyle=orthogonalEdgeStyle;rounded=0;orthogonalLoop=1;jettySize=auto;html=1;endArrow=ERone;endFill=0;" edge="1" parent="UzELeVy0itp8o8AQ1S7T-1" source="RJn_T40zJPG0TcpI99bp-11" target="RJn_T40zJPG0TcpI99bp-7">
          <mxGeometry relative="1" as="geometry" />
        </mxCell>
        <mxCell id="RJn_T40zJPG0TcpI99bp-11" value="&lt;p style=&quot;margin: 0px ; margin-top: 4px ; text-align: center&quot;&gt;&lt;b&gt;friend_relation&lt;/b&gt;&lt;/p&gt;&lt;hr size=&quot;1&quot;&gt;&lt;p style=&quot;margin: 0px ; margin-left: 4px&quot;&gt;friend_relation_id&lt;/p&gt;&lt;hr size=&quot;1&quot;&gt;&lt;p style=&quot;margin: 0px ; margin-left: 4px&quot;&gt;user_id&lt;/p&gt;&lt;p style=&quot;margin: 0px ; margin-left: 4px&quot;&gt;friend_user_id&lt;/p&gt;&lt;p style=&quot;margin: 0px 0px 0px 4px&quot;&gt;friend_status&lt;/p&gt;&lt;p style=&quot;margin: 0px 0px 0px 4px&quot;&gt;created_at&lt;/p&gt;&lt;p style=&quot;margin: 0px 0px 0px 4px&quot;&gt;updated_at&lt;/p&gt;" style="verticalAlign=top;align=left;overflow=fill;fontSize=12;fontFamily=Helvetica;html=1;rounded=0;shadow=0;comic=0;labelBackgroundColor=none;strokeWidth=1" vertex="1" parent="UzELeVy0itp8o8AQ1S7T-1">
          <mxGeometry x="70" y="150" width="190" height="140" as="geometry" />
        </mxCell>
        <mxCell id="rzjAkNylwUOneO2qIM_i-0" value="friend_statusに入るのは、申請中・被申請中・承認済み・却下済み・ブロック中&lt;br&gt;承認済みのステータスになるとお互いのトーク一覧ページに&lt;br&gt;相手のアイコンが表示されるようになる" style="text;html=1;align=center;verticalAlign=middle;resizable=0;points=[];autosize=1;" vertex="1" parent="UzELeVy0itp8o8AQ1S7T-1">
          <mxGeometry x="35" y="90" width="440" height="50" as="geometry" />
        </mxCell>
        <mxCell id="rzjAkNylwUOneO2qIM_i-1" value="トーク一覧から選択されたフレンドに対して送ったメッセージをContentに保持する。" style="text;html=1;align=center;verticalAlign=middle;resizable=0;points=[];autosize=1;" vertex="1" parent="UzELeVy0itp8o8AQ1S7T-1">
          <mxGeometry x="205" y="420" width="480" height="20" as="geometry" />
        </mxCell>
      </root>
    </mxGraphModel>
  </diagram>
</mxfile>
